<svg width="774" height="160" viewBox="0 0 774 160" fill="none" xmlns="http://www.w3.org/2000/svg">
<rect y="86" width="774" height="74" fill="#294D7C"/>
<path d="M115.329 106.48C109.569 114.928 100.977 119.152 89.5534 119.152C79.1854 119.152 70.7374 115.552 64.2094 108.352C57.8734 101.248 54.7054 92.464 54.7054 82C54.7054 71.536 57.8734 62.752 64.2094 55.648C70.7374 48.448 79.4254 44.848 90.2734 44.848C101.121 44.848 109.473 49.12 115.329 57.664V46H126.129V118H115.329V106.48ZM90.9934 109.36C98.7694 109.36 104.913 106.672 109.425 101.296C113.745 96.208 115.905 89.776 115.905 82C115.905 74.224 113.745 67.792 109.425 62.704C104.913 57.328 98.7694 54.64 90.9934 54.64C83.3134 54.64 77.0734 57.328 72.2734 62.704C67.7614 67.792 65.5054 74.224 65.5054 82C65.5054 89.776 67.7614 96.208 72.2734 101.296C77.0734 106.672 83.3134 109.36 90.9934 109.36ZM162.81 57.664C168.666 49.12 177.258 44.848 188.586 44.848C198.954 44.848 207.354 48.448 213.786 55.648C220.218 62.752 223.434 71.536 223.434 82C223.434 92.464 220.218 101.248 213.786 108.352C207.354 115.552 198.666 119.152 187.722 119.152C176.874 119.152 168.57 114.928 162.81 106.48V118H152.01V17.2H162.81V57.664ZM187.146 109.36C194.826 109.36 201.066 106.672 205.866 101.296C210.378 96.208 212.634 89.776 212.634 82C212.634 74.224 210.378 67.792 205.866 62.704C201.066 57.328 194.826 54.64 187.146 54.64C179.37 54.64 173.226 57.328 168.714 62.704C164.394 67.792 162.234 74.224 162.234 82C162.234 89.776 164.394 96.208 168.714 101.296C173.226 106.672 179.37 109.36 187.146 109.36ZM275.958 44.848C286.71 44.848 295.446 48.448 302.166 55.648C308.502 62.56 311.67 71.344 311.67 82C311.67 92.656 308.502 101.44 302.166 108.352C295.446 115.552 286.71 119.152 275.958 119.152C265.206 119.152 256.47 115.552 249.75 108.352C243.414 101.44 240.246 92.656 240.246 82C240.246 71.344 243.414 62.56 249.75 55.648C256.47 48.448 265.206 44.848 275.958 44.848ZM275.958 109.36C283.734 109.36 289.878 106.672 294.39 101.296C298.71 96.208 300.87 89.776 300.87 82C300.87 74.224 298.71 67.792 294.39 62.704C289.878 57.328 283.734 54.64 275.958 54.64C268.182 54.64 262.038 57.328 257.526 62.704C253.206 67.792 251.046 74.224 251.046 82C251.046 89.776 253.206 96.208 257.526 101.296C262.038 106.672 268.182 109.36 275.958 109.36ZM385.175 118V106.768C382.583 110.224 379.415 113.152 375.671 115.552C371.927 117.952 367.655 119.152 362.855 119.152C358.055 119.152 353.927 118.48 350.471 117.136C347.015 115.792 343.991 113.776 341.399 111.088C335.447 105.232 332.471 97.504 332.471 87.904V46H343.271V87.616C343.271 94.24 345.143 99.52 348.887 103.456C352.631 107.392 357.479 109.36 363.431 109.36C369.479 109.36 374.615 107.344 378.839 103.312C383.063 99.184 385.175 93.904 385.175 87.472V46H395.975V118H385.175ZM429.73 118V55.504H415.042V46H429.73V20.224H440.53V46H457.09V55.504H440.53V118H429.73ZM524.779 56.944C529.579 48.88 536.875 44.848 546.667 44.848C551.467 44.848 555.883 46.144 559.915 48.736C564.043 51.232 567.259 54.784 569.563 59.392C572.827 53.344 577.915 49.024 584.827 46.432C587.611 45.376 590.731 44.848 594.187 44.848C597.739 44.848 601.099 45.568 604.267 47.008C607.531 48.352 610.411 50.32 612.907 52.912C618.283 58.672 620.971 65.872 620.971 74.512V118H610.171V74.8C610.171 68.848 608.491 63.952 605.131 60.112C601.771 56.464 597.499 54.64 592.315 54.64C586.843 54.64 582.283 56.416 578.635 59.968C574.795 63.616 572.875 68.608 572.875 74.944V118H562.075V74.8C562.075 68.848 560.395 63.952 557.035 60.112C553.675 56.464 549.403 54.64 544.219 54.64C538.747 54.64 534.187 56.416 530.539 59.968C526.699 63.616 524.779 68.608 524.779 74.944V118H513.979V46H524.779V56.944ZM678.306 109.36C688.002 109.36 694.962 105.328 699.186 97.264H710.994C708.498 103.792 704.514 109.072 699.042 113.104C693.666 117.136 686.706 119.152 678.162 119.152C667.314 119.152 658.482 115.552 651.666 108.352C645.042 101.344 641.73 92.56 641.73 82C641.73 71.344 644.898 62.56 651.234 55.648C657.954 48.448 666.69 44.848 677.442 44.848C688.194 44.848 696.93 48.448 703.65 55.648C709.986 62.56 713.154 71.344 713.154 82V86.32H652.818C653.586 92.944 656.226 98.416 660.738 102.736C665.346 107.152 671.202 109.36 678.306 109.36ZM677.442 54.64C670.818 54.64 665.25 56.704 660.738 60.832C656.514 64.768 653.922 69.904 652.962 76.24H701.922C700.962 69.904 698.37 64.768 694.146 60.832C689.634 56.704 684.066 54.64 677.442 54.64Z" fill="#011638"/>
</svg>
