<svg width="879" height="160" viewBox="0 0 879 160" fill="none" xmlns="http://www.w3.org/2000/svg">
<rect y="86" width="879" height="74" fill="#294D7C"/>
<path d="M85.7178 109.36C90.3258 109.36 94.4058 108.064 97.9578 105.472C101.51 102.88 104.102 99.52 105.734 95.392H117.398C115.19 102.496 111.158 108.208 105.302 112.528C99.1578 116.944 91.8618 119.152 83.4138 119.152C72.8538 119.152 64.2618 115.552 57.6378 108.352C51.2058 101.344 47.9898 92.56 47.9898 82C47.9898 71.44 51.2058 62.656 57.6378 55.648C64.2618 48.448 72.8538 44.848 83.4138 44.848C91.8618 44.848 99.1578 47.056 105.302 51.472C111.158 55.792 115.19 61.504 117.398 68.608H105.734C104.102 64.48 101.51 61.12 97.9578 58.528C94.4058 55.936 90.3258 54.64 85.7178 54.64C81.1098 54.64 77.1738 55.36 73.9098 56.8C70.7418 58.24 68.0538 60.208 65.8458 62.704C61.1418 67.888 58.7898 74.32 58.7898 82C58.7898 89.68 61.1418 96.112 65.8458 101.296C70.6458 106.672 77.2698 109.36 85.7178 109.36ZM169.23 44.848C179.982 44.848 188.718 48.448 195.438 55.648C201.774 62.56 204.942 71.344 204.942 82C204.942 92.656 201.774 101.44 195.438 108.352C188.718 115.552 179.982 119.152 169.23 119.152C158.478 119.152 149.742 115.552 143.022 108.352C136.686 101.44 133.518 92.656 133.518 82C133.518 71.344 136.686 62.56 143.022 55.648C149.742 48.448 158.478 44.848 169.23 44.848ZM169.23 109.36C177.006 109.36 183.15 106.672 187.662 101.296C191.982 96.208 194.142 89.776 194.142 82C194.142 74.224 191.982 67.792 187.662 62.704C183.15 57.328 177.006 54.64 169.23 54.64C161.454 54.64 155.31 57.328 150.798 62.704C146.478 67.792 144.318 74.224 144.318 82C144.318 89.776 146.478 96.208 150.798 101.296C155.31 106.672 161.454 109.36 169.23 109.36ZM237.263 46V57.232C239.855 53.776 243.023 50.848 246.767 48.448C250.511 46.048 254.783 44.848 259.583 44.848C264.383 44.848 268.511 45.52 271.967 46.864C275.423 48.208 278.447 50.224 281.039 52.912C286.991 58.768 289.967 66.496 289.967 76.096V118H279.167V76.384C279.167 69.76 277.295 64.48 273.551 60.544C269.807 56.608 264.959 54.64 259.007 54.64C252.959 54.64 247.823 56.656 243.599 60.688C239.375 64.816 237.263 70.096 237.263 76.528V118H226.463V46H237.263ZM321.314 118V55.504H306.626V46H321.314V20.224H332.114V46H348.674V55.504H332.114V118H321.314ZM422.461 106.48C416.701 114.928 408.109 119.152 396.685 119.152C386.317 119.152 377.869 115.552 371.341 108.352C365.005 101.248 361.837 92.464 361.837 82C361.837 71.536 365.005 62.752 371.341 55.648C377.869 48.448 386.557 44.848 397.405 44.848C408.253 44.848 416.605 49.12 422.461 57.664V46H433.261V118H422.461V106.48ZM398.125 109.36C405.901 109.36 412.045 106.672 416.557 101.296C420.877 96.208 423.037 89.776 423.037 82C423.037 74.224 420.877 67.792 416.557 62.704C412.045 57.328 405.901 54.64 398.125 54.64C390.445 54.64 384.205 57.328 379.405 62.704C374.893 67.792 372.637 74.224 372.637 82C372.637 89.776 374.893 96.208 379.405 101.296C384.205 106.672 390.445 109.36 398.125 109.36ZM492.405 109.36C497.013 109.36 501.093 108.064 504.645 105.472C508.197 102.88 510.789 99.52 512.421 95.392H524.085C521.877 102.496 517.845 108.208 511.989 112.528C505.845 116.944 498.549 119.152 490.101 119.152C479.541 119.152 470.949 115.552 464.325 108.352C457.893 101.344 454.677 92.56 454.677 82C454.677 71.44 457.893 62.656 464.325 55.648C470.949 48.448 479.541 44.848 490.101 44.848C498.549 44.848 505.845 47.056 511.989 51.472C517.845 55.792 521.877 61.504 524.085 68.608H512.421C510.789 64.48 508.197 61.12 504.645 58.528C501.093 55.936 497.013 54.64 492.405 54.64C487.797 54.64 483.861 55.36 480.597 56.8C477.429 58.24 474.741 60.208 472.533 62.704C467.829 67.888 465.477 74.32 465.477 82C465.477 89.68 467.829 96.112 472.533 101.296C477.333 106.672 483.957 109.36 492.405 109.36ZM552.445 118V55.504H537.757V46H552.445V20.224H563.245V46H579.805V55.504H563.245V118H552.445ZM647.494 56.944C652.294 48.88 659.59 44.848 669.382 44.848C674.182 44.848 678.598 46.144 682.63 48.736C686.758 51.232 689.974 54.784 692.278 59.392C695.542 53.344 700.63 49.024 707.542 46.432C710.326 45.376 713.446 44.848 716.902 44.848C720.454 44.848 723.814 45.568 726.982 47.008C730.246 48.352 733.126 50.32 735.622 52.912C740.998 58.672 743.686 65.872 743.686 74.512V118H732.886V74.8C732.886 68.848 731.206 63.952 727.846 60.112C724.486 56.464 720.214 54.64 715.03 54.64C709.558 54.64 704.998 56.416 701.35 59.968C697.51 63.616 695.59 68.608 695.59 74.944V118H684.79V74.8C684.79 68.848 683.11 63.952 679.75 60.112C676.39 56.464 672.118 54.64 666.934 54.64C661.462 54.64 656.902 56.416 653.254 59.968C649.414 63.616 647.494 68.608 647.494 74.944V118H636.694V46H647.494V56.944ZM801.022 109.36C810.718 109.36 817.678 105.328 821.902 97.264H833.71C831.214 103.792 827.23 109.072 821.758 113.104C816.382 117.136 809.422 119.152 800.878 119.152C790.03 119.152 781.198 115.552 774.382 108.352C767.758 101.344 764.446 92.56 764.446 82C764.446 71.344 767.614 62.56 773.95 55.648C780.67 48.448 789.406 44.848 800.158 44.848C810.91 44.848 819.646 48.448 826.366 55.648C832.702 62.56 835.87 71.344 835.87 82V86.32H775.534C776.302 92.944 778.942 98.416 783.454 102.736C788.062 107.152 793.918 109.36 801.022 109.36ZM800.158 54.64C793.534 54.64 787.966 56.704 783.454 60.832C779.23 64.768 776.638 69.904 775.678 76.24H824.638C823.678 69.904 821.086 64.768 816.862 60.832C812.35 56.704 806.782 54.64 800.158 54.64Z" fill="#87ADC6"/>
</svg>
