<svg width="1180" height="438" viewBox="0 0 1180 438" fill="none" xmlns="http://www.w3.org/2000/svg">
<rect y="96" width="787" height="100" fill="#011638"/>
<rect x="158" y="338" width="1022" height="100" fill="#011638"/>
<path d="M66.3762 54V67.26C69.4362 63.18 73.1762 59.7233 77.5962 56.89C82.0162 54.0567 87.0595 52.64 92.7262 52.64C98.3928 52.64 103.266 53.4333 107.346 55.02C111.426 56.6067 114.996 58.9867 118.056 62.16C125.083 69.0733 128.596 78.1967 128.596 89.53V139H115.846V89.87C115.846 82.05 113.636 75.8167 109.216 71.17C104.796 66.5233 99.0728 64.2 92.0462 64.2C84.9062 64.2 78.8428 66.58 73.8562 71.34C68.8695 76.2133 66.3762 82.4467 66.3762 90.04V139H53.6262V54H66.3762ZM158.415 54H171.165V139H158.415V54ZM171.675 23.06V39.72H157.905V23.06H171.675ZM241.049 128.8C246.489 128.8 251.305 127.27 255.499 124.21C259.692 121.15 262.752 117.183 264.679 112.31H278.449C275.842 120.697 271.082 127.44 264.169 132.54C256.915 137.753 248.302 140.36 238.329 140.36C225.862 140.36 215.719 136.11 207.899 127.61C200.305 119.337 196.509 108.967 196.509 96.5C196.509 84.0333 200.305 73.6633 207.899 65.39C215.719 56.89 225.862 52.64 238.329 52.64C248.302 52.64 256.915 55.2467 264.169 60.46C271.082 65.56 275.842 72.3033 278.449 80.69H264.679C262.752 75.8167 259.692 71.85 255.499 68.79C251.305 65.73 246.489 64.2 241.049 64.2C235.609 64.2 230.962 65.05 227.109 66.75C223.369 68.45 220.195 70.7733 217.589 73.72C212.035 79.84 209.259 87.4333 209.259 96.5C209.259 105.567 212.035 113.16 217.589 119.28C223.255 125.627 231.075 128.8 241.049 128.8ZM315.499 20V67.26C318.559 63.18 322.299 59.7233 326.719 56.89C331.139 54.0567 336.183 52.64 341.849 52.64C347.516 52.64 352.389 53.4333 356.469 55.02C360.549 56.6067 364.119 58.9867 367.179 62.16C374.206 69.0733 377.719 78.1967 377.719 89.53V139H364.969V89.87C364.969 82.05 362.759 75.8167 358.339 71.17C353.919 66.5233 348.196 64.2 341.169 64.2C334.029 64.2 327.966 66.58 322.979 71.34C317.993 76.2133 315.499 82.4467 315.499 90.04V139H302.749V20H315.499ZM444.428 52.64C457.122 52.64 467.435 56.89 475.368 65.39C482.848 73.55 486.588 83.92 486.588 96.5C486.588 109.08 482.848 119.45 475.368 127.61C467.435 136.11 457.122 140.36 444.428 140.36C431.735 140.36 421.422 136.11 413.488 127.61C406.008 119.45 402.268 109.08 402.268 96.5C402.268 83.92 406.008 73.55 413.488 65.39C421.422 56.89 431.735 52.64 444.428 52.64ZM444.428 128.8C453.608 128.8 460.862 125.627 466.188 119.28C471.288 113.273 473.838 105.68 473.838 96.5C473.838 87.32 471.288 79.7267 466.188 73.72C460.862 67.3733 453.608 64.2 444.428 64.2C435.248 64.2 427.995 67.3733 422.668 73.72C417.568 79.7267 415.018 87.32 415.018 96.5C415.018 105.68 417.568 113.273 422.668 119.28C427.995 125.627 435.248 128.8 444.428 128.8ZM524.745 139H511.995V20H524.745V139ZM621.659 125.4C614.859 135.373 604.715 140.36 591.229 140.36C578.989 140.36 569.015 136.11 561.309 127.61C553.829 119.223 550.089 108.853 550.089 96.5C550.089 84.1467 553.829 73.7767 561.309 65.39C569.015 56.89 579.272 52.64 592.079 52.64C604.885 52.64 614.745 57.6833 621.659 67.77V54H634.409V139H621.659V125.4ZM592.929 128.8C602.109 128.8 609.362 125.627 614.689 119.28C619.789 113.273 622.339 105.68 622.339 96.5C622.339 87.32 619.789 79.7267 614.689 73.72C609.362 67.3733 602.109 64.2 592.929 64.2C583.862 64.2 576.495 67.3733 570.829 73.72C565.502 79.7267 562.839 87.32 562.839 96.5C562.839 105.68 565.502 113.273 570.829 119.28C576.495 125.627 583.862 128.8 592.929 128.8ZM714.942 76.78C713.809 67.94 706.669 63.52 693.522 63.52C680.489 63.52 673.972 67.6 673.972 75.76C673.972 79.16 675.332 81.7667 678.052 83.58C680.885 85.28 684.399 86.6967 688.592 87.83C692.785 88.9633 697.319 90.04 702.192 91.06C707.179 91.9667 711.769 93.3267 715.962 95.14C720.155 96.84 723.612 99.22 726.332 102.28C729.165 105.34 730.582 109.533 730.582 114.86C730.582 123.133 727.465 129.48 721.232 133.9C714.999 138.207 706.555 140.36 695.902 140.36C684.569 140.36 675.559 137.527 668.872 131.86C662.752 126.873 659.465 120.357 659.012 112.31H672.272C673.065 120.13 677.485 125.4 685.532 128.12C688.479 129.027 691.369 129.48 694.202 129.48C697.149 129.48 699.869 129.31 702.362 128.97C704.855 128.63 707.292 128.007 709.672 127.1C715.112 124.947 717.832 121.263 717.832 116.05C717.832 112.537 716.415 109.873 713.582 108.06C710.862 106.133 707.405 104.603 703.212 103.47C699.019 102.223 694.429 101.147 689.442 100.24C684.569 99.22 680.035 97.86 675.842 96.16C671.649 94.46 668.135 92.1367 665.302 89.19C662.582 86.2433 661.222 82.1633 661.222 76.95C661.222 69.2433 663.999 63.2933 669.552 59.1C675.219 54.7933 683.549 52.64 694.542 52.64C704.969 52.64 713.185 55.1333 719.192 60.12C724.179 64.3133 727.069 69.8667 727.862 76.78H714.942Z" fill="#87ADC6"/>
<path d="M216.75 303.92C222.417 294.4 231.03 289.64 242.59 289.64C248.257 289.64 253.47 291.17 258.23 294.23C263.104 297.177 266.9 301.37 269.62 306.81C273.474 299.67 279.48 294.57 287.64 291.51C290.927 290.263 294.61 289.64 298.69 289.64C302.884 289.64 306.85 290.49 310.59 292.19C314.444 293.777 317.844 296.1 320.79 299.16C327.137 305.96 330.31 314.46 330.31 324.66V376H317.56V325C317.56 317.973 315.577 312.193 311.61 307.66C307.644 303.353 302.6 301.2 296.48 301.2C290.02 301.2 284.637 303.297 280.33 307.49C275.797 311.797 273.53 317.69 273.53 325.17V376H260.78V325C260.78 317.973 258.797 312.193 254.83 307.66C250.864 303.353 245.82 301.2 239.7 301.2C233.24 301.2 227.857 303.297 223.55 307.49C219.017 311.797 216.75 317.69 216.75 325.17V376H204V291H216.75V303.92ZM397.998 365.8C409.445 365.8 417.661 361.04 422.648 351.52H436.588C433.641 359.227 428.938 365.46 422.478 370.22C416.131 374.98 407.915 377.36 397.828 377.36C385.021 377.36 374.595 373.11 366.548 364.61C358.728 356.337 354.818 345.967 354.818 333.5C354.818 320.92 358.558 310.55 366.038 302.39C373.971 293.89 384.285 289.64 396.978 289.64C409.671 289.64 419.985 293.89 427.918 302.39C435.398 310.55 439.138 320.92 439.138 333.5V338.6H367.908C368.815 346.42 371.931 352.88 377.258 357.98C382.698 363.193 389.611 365.8 397.998 365.8ZM396.978 301.2C389.158 301.2 382.585 303.637 377.258 308.51C372.271 313.157 369.211 319.22 368.078 326.7H425.878C424.745 319.22 421.685 313.157 416.698 308.51C411.371 303.637 404.798 301.2 396.978 301.2ZM463.217 291H475.967V376H463.217V291ZM476.477 260.06V276.72H462.707V260.06H476.477ZM556.56 313.78C555.427 304.94 548.287 300.52 535.14 300.52C522.107 300.52 515.59 304.6 515.59 312.76C515.59 316.16 516.95 318.767 519.67 320.58C522.504 322.28 526.017 323.697 530.21 324.83C534.404 325.963 538.937 327.04 543.81 328.06C548.797 328.967 553.387 330.327 557.58 332.14C561.774 333.84 565.23 336.22 567.95 339.28C570.784 342.34 572.2 346.533 572.2 351.86C572.2 360.133 569.084 366.48 562.85 370.9C556.617 375.207 548.174 377.36 537.52 377.36C526.187 377.36 517.177 374.527 510.49 368.86C504.37 363.873 501.084 357.357 500.63 349.31H513.89C514.684 357.13 519.104 362.4 527.15 365.12C530.097 366.027 532.987 366.48 535.82 366.48C538.767 366.48 541.487 366.31 543.98 365.97C546.474 365.63 548.91 365.007 551.29 364.1C556.73 361.947 559.45 358.263 559.45 353.05C559.45 349.537 558.034 346.873 555.2 345.06C552.48 343.133 549.024 341.603 544.83 340.47C540.637 339.223 536.047 338.147 531.06 337.24C526.187 336.22 521.654 334.86 517.46 333.16C513.267 331.46 509.754 329.137 506.92 326.19C504.2 323.243 502.84 319.163 502.84 313.95C502.84 306.243 505.617 300.293 511.17 296.1C516.837 291.793 525.167 289.64 536.16 289.64C546.587 289.64 554.804 292.133 560.81 297.12C565.797 301.313 568.687 306.867 569.48 313.78H556.56ZM609.842 304.77C616.755 294.683 626.899 289.64 640.272 289.64C652.512 289.64 662.429 293.89 670.022 302.39C677.615 310.777 681.412 321.147 681.412 333.5C681.412 345.853 677.615 356.223 670.022 364.61C662.429 373.11 652.172 377.36 639.252 377.36C626.445 377.36 616.642 372.373 609.842 362.4V376H597.092V257H609.842V304.77ZM638.572 365.8C647.639 365.8 655.005 362.627 660.672 356.28C665.999 350.273 668.662 342.68 668.662 333.5C668.662 324.32 665.999 316.727 660.672 310.72C655.005 304.373 647.639 301.2 638.572 301.2C629.392 301.2 622.139 304.373 616.812 310.72C611.712 316.727 609.162 324.32 609.162 333.5C609.162 342.68 611.712 350.273 616.812 356.28C622.139 362.627 629.392 365.8 638.572 365.8ZM767.899 376V362.74C764.839 366.82 761.099 370.277 756.679 373.11C752.259 375.943 747.216 377.36 741.549 377.36C735.883 377.36 731.009 376.567 726.929 374.98C722.849 373.393 719.279 371.013 716.219 367.84C709.193 360.927 705.679 351.803 705.679 340.47V291H718.429V340.13C718.429 347.95 720.639 354.183 725.059 358.83C729.479 363.477 735.203 365.8 742.229 365.8C749.369 365.8 755.433 363.42 760.419 358.66C765.406 353.787 767.899 347.553 767.899 339.96V291H780.65V376H767.899ZM856.199 289.64V302.39H854.669C845.489 302.39 838.009 306.073 832.229 313.44C826.789 320.467 824.069 328.853 824.069 338.6V376H811.319V291H824.069V311.91C826.789 303.07 832.682 296.553 841.749 292.36C845.489 290.547 850.022 289.64 855.349 289.64H856.199ZM942.564 304.6V291H955.314V373.45C955.314 385.69 951.801 394.983 944.774 401.33C937.861 407.79 928.511 411.02 916.724 411.02C904.937 411.02 895.701 408.753 889.014 404.22C882.441 399.687 877.964 393.68 875.584 386.2H889.694C893.321 395.04 901.594 399.46 914.514 399.46C924.374 399.46 931.514 397.193 935.934 392.66C940.354 388.127 942.564 381.44 942.564 372.6V360.87C935.651 370.957 925.507 376 912.134 376C899.894 376 889.921 371.807 882.214 363.42C874.734 355.26 870.994 345.06 870.994 332.82C870.994 320.58 874.734 310.38 882.214 302.22C889.921 293.833 900.177 289.64 912.984 289.64C925.904 289.64 935.764 294.627 942.564 304.6ZM913.834 364.44C918.481 364.44 922.617 363.647 926.244 362.06C929.871 360.36 932.987 358.093 935.594 355.26C940.694 349.367 943.244 341.887 943.244 332.82C943.244 323.753 940.694 316.273 935.594 310.38C930.041 304.26 922.787 301.2 913.834 301.2C904.654 301.2 897.287 304.26 891.734 310.38C886.407 316.387 883.744 323.867 883.744 332.82C883.744 341.773 886.407 349.253 891.734 355.26C897.287 361.38 904.654 364.44 913.834 364.44ZM1023.78 365.8C1035.22 365.8 1043.44 361.04 1048.43 351.52H1062.37C1059.42 359.227 1054.72 365.46 1048.26 370.22C1041.91 374.98 1033.69 377.36 1023.61 377.36C1010.8 377.36 1000.37 373.11 992.327 364.61C984.507 356.337 980.597 345.967 980.597 333.5C980.597 320.92 984.337 310.55 991.817 302.39C999.751 293.89 1010.06 289.64 1022.76 289.64C1035.45 289.64 1045.76 293.89 1053.7 302.39C1061.18 310.55 1064.92 320.92 1064.92 333.5V338.6H993.687C994.594 346.42 997.711 352.88 1003.04 357.98C1008.48 363.193 1015.39 365.8 1023.78 365.8ZM1022.76 301.2C1014.94 301.2 1008.36 303.637 1003.04 308.51C998.051 313.157 994.991 319.22 993.857 326.7H1051.66C1050.52 319.22 1047.46 313.157 1042.48 308.51C1037.15 303.637 1030.58 301.2 1022.76 301.2ZM1133.88 289.64V302.39H1132.35C1123.17 302.39 1115.69 306.073 1109.91 313.44C1104.47 320.467 1101.75 328.853 1101.75 338.6V376H1089V291H1101.75V311.91C1104.47 303.07 1110.36 296.553 1119.43 292.36C1123.17 290.547 1127.7 289.64 1133.03 289.64H1133.88Z" fill="#87ADC6"/>
</svg>
