<svg width="1219" height="421" viewBox="0 0 1219 421" fill="none" xmlns="http://www.w3.org/2000/svg">
<rect width="1219" height="421" fill="#294D7C"/>
<rect x="136" y="408" width="1083" height="13" fill="#011638"/>
<rect y="214" width="787" height="13" fill="#011638"/>
<rect x="136" width="13" height="415" fill="#011638"/>
<path d="M194.16 102V113.232C196.752 109.776 199.92 106.848 203.664 104.448C207.408 102.048 211.68 100.848 216.48 100.848C221.28 100.848 225.408 101.52 228.864 102.864C232.32 104.208 235.344 106.224 237.936 108.912C243.888 114.768 246.864 122.496 246.864 132.096V174H236.064V132.384C236.064 125.76 234.192 120.48 230.448 116.544C226.704 112.608 221.856 110.64 215.904 110.64C209.856 110.64 204.72 112.656 200.496 116.688C196.272 120.816 194.16 126.096 194.16 132.528V174H183.36V102H194.16ZM272.122 102H282.922V174H272.122V102ZM283.354 75.792V89.904H271.69V75.792H283.354ZM342.118 165.36C346.726 165.36 350.806 164.064 354.358 161.472C357.91 158.88 360.502 155.52 362.134 151.392H373.798C371.59 158.496 367.558 164.208 361.702 168.528C355.558 172.944 348.262 175.152 339.814 175.152C329.254 175.152 320.662 171.552 314.038 164.352C307.606 157.344 304.39 148.56 304.39 138C304.39 127.44 307.606 118.656 314.038 111.648C320.662 104.448 329.254 100.848 339.814 100.848C348.262 100.848 355.558 103.056 361.702 107.472C367.558 111.792 371.59 117.504 373.798 124.608H362.134C360.502 120.48 357.91 117.12 354.358 114.528C350.806 111.936 346.726 110.64 342.118 110.64C337.51 110.64 333.574 111.36 330.31 112.8C327.142 114.24 324.454 116.208 322.246 118.704C317.542 123.888 315.19 130.32 315.19 138C315.19 145.68 317.542 152.112 322.246 157.296C327.046 162.672 333.67 165.36 342.118 165.36ZM405.182 73.2V113.232C407.774 109.776 410.942 106.848 414.686 104.448C418.43 102.048 422.702 100.848 427.502 100.848C432.302 100.848 436.43 101.52 439.886 102.864C443.342 104.208 446.366 106.224 448.958 108.912C454.91 114.768 457.886 122.496 457.886 132.096V174H447.086V132.384C447.086 125.76 445.214 120.48 441.47 116.544C437.726 112.608 432.878 110.64 426.926 110.64C420.878 110.64 415.742 112.656 411.518 116.688C407.294 120.816 405.182 126.096 405.182 132.528V174H394.382V73.2H405.182ZM514.392 100.848C525.144 100.848 533.88 104.448 540.6 111.648C546.936 118.56 550.104 127.344 550.104 138C550.104 148.656 546.936 157.44 540.6 164.352C533.88 171.552 525.144 175.152 514.392 175.152C503.64 175.152 494.904 171.552 488.184 164.352C481.848 157.44 478.68 148.656 478.68 138C478.68 127.344 481.848 118.56 488.184 111.648C494.904 104.448 503.64 100.848 514.392 100.848ZM514.392 165.36C522.168 165.36 528.312 162.672 532.824 157.296C537.144 152.208 539.304 145.776 539.304 138C539.304 130.224 537.144 123.792 532.824 118.704C528.312 113.328 522.168 110.64 514.392 110.64C506.616 110.64 500.472 113.328 495.96 118.704C491.64 123.792 489.48 130.224 489.48 138C489.48 145.776 491.64 152.208 495.96 157.296C500.472 162.672 506.616 165.36 514.392 165.36ZM582.426 174H571.626V73.2H582.426V174ZM664.517 162.48C658.757 170.928 650.165 175.152 638.741 175.152C628.373 175.152 619.925 171.552 613.397 164.352C607.061 157.248 603.893 148.464 603.893 138C603.893 127.536 607.061 118.752 613.397 111.648C619.925 104.448 628.613 100.848 639.461 100.848C650.309 100.848 658.661 105.12 664.517 113.664V102H675.317V174H664.517V162.48ZM640.181 165.36C647.957 165.36 654.101 162.672 658.613 157.296C662.933 152.208 665.093 145.776 665.093 138C665.093 130.224 662.933 123.792 658.613 118.704C654.101 113.328 647.957 110.64 640.181 110.64C632.501 110.64 626.261 113.328 621.461 118.704C616.949 123.792 614.693 130.224 614.693 138C614.693 145.776 616.949 152.208 621.461 157.296C626.261 162.672 632.501 165.36 640.181 165.36ZM743.534 121.296C742.574 113.808 736.526 110.064 725.39 110.064C714.35 110.064 708.83 113.52 708.83 120.432C708.83 123.312 709.982 125.52 712.286 127.056C714.686 128.496 717.662 129.696 721.214 130.656C724.766 131.616 728.606 132.528 732.734 133.392C736.958 134.16 740.846 135.312 744.398 136.848C747.95 138.288 750.878 140.304 753.182 142.896C755.582 145.488 756.782 149.04 756.782 153.552C756.782 160.56 754.142 165.936 748.862 169.68C743.582 173.328 736.43 175.152 727.406 175.152C717.806 175.152 710.174 172.752 704.51 167.952C699.326 163.728 696.542 158.208 696.158 151.392H707.39C708.062 158.016 711.806 162.48 718.622 164.784C721.118 165.552 723.566 165.936 725.966 165.936C728.462 165.936 730.766 165.792 732.878 165.504C734.99 165.216 737.054 164.688 739.07 163.92C743.678 162.096 745.982 158.976 745.982 154.56C745.982 151.584 744.782 149.328 742.382 147.792C740.078 146.16 737.15 144.864 733.598 143.904C730.046 142.848 726.158 141.936 721.934 141.168C717.806 140.304 713.966 139.152 710.414 137.712C706.862 136.272 703.886 134.304 701.486 131.808C699.182 129.312 698.03 125.856 698.03 121.44C698.03 114.912 700.382 109.872 705.086 106.32C709.886 102.672 716.942 100.848 726.254 100.848C735.086 100.848 742.046 102.96 747.134 107.184C751.358 110.736 753.806 115.44 754.478 121.296H743.534ZM194.16 300.944C198.96 292.88 206.256 288.848 216.048 288.848C220.848 288.848 225.264 290.144 229.296 292.736C233.424 295.232 236.64 298.784 238.944 303.392C242.208 297.344 247.296 293.024 254.208 290.432C256.992 289.376 260.112 288.848 263.568 288.848C267.12 288.848 270.48 289.568 273.648 291.008C276.912 292.352 279.792 294.32 282.288 296.912C287.664 302.672 290.352 309.872 290.352 318.512V362H279.552V318.8C279.552 312.848 277.872 307.952 274.512 304.112C271.152 300.464 266.88 298.64 261.696 298.64C256.224 298.64 251.664 300.416 248.016 303.968C244.176 307.616 242.256 312.608 242.256 318.944V362H231.456V318.8C231.456 312.848 229.776 307.952 226.416 304.112C223.056 300.464 218.784 298.64 213.6 298.64C208.128 298.64 203.568 300.416 199.92 303.968C196.08 307.616 194.16 312.608 194.16 318.944V362H183.36V290H194.16V300.944ZM347.688 353.36C357.384 353.36 364.344 349.328 368.568 341.264H380.376C377.88 347.792 373.896 353.072 368.424 357.104C363.048 361.136 356.088 363.152 347.544 363.152C336.696 363.152 327.864 359.552 321.048 352.352C314.424 345.344 311.112 336.56 311.112 326C311.112 315.344 314.28 306.56 320.616 299.648C327.336 292.448 336.072 288.848 346.824 288.848C357.576 288.848 366.312 292.448 373.032 299.648C379.368 306.56 382.536 315.344 382.536 326V330.32H322.2C322.968 336.944 325.608 342.416 330.12 346.736C334.728 351.152 340.584 353.36 347.688 353.36ZM346.824 298.64C340.2 298.64 334.632 300.704 330.12 304.832C325.896 308.768 323.304 313.904 322.344 320.24H371.304C370.344 313.904 367.752 308.768 363.528 304.832C359.016 300.704 353.448 298.64 346.824 298.64ZM402.932 290H413.732V362H402.932V290ZM414.164 263.792V277.904H402.5V263.792H414.164ZM481.999 309.296C481.039 301.808 474.991 298.064 463.855 298.064C452.815 298.064 447.295 301.52 447.295 308.432C447.295 311.312 448.447 313.52 450.751 315.056C453.151 316.496 456.127 317.696 459.679 318.656C463.231 319.616 467.071 320.528 471.199 321.392C475.423 322.16 479.311 323.312 482.863 324.848C486.415 326.288 489.343 328.304 491.647 330.896C494.047 333.488 495.247 337.04 495.247 341.552C495.247 348.56 492.607 353.936 487.327 357.68C482.047 361.328 474.895 363.152 465.871 363.152C456.271 363.152 448.639 360.752 442.975 355.952C437.791 351.728 435.007 346.208 434.623 339.392H445.855C446.527 346.016 450.271 350.48 457.087 352.784C459.583 353.552 462.031 353.936 464.431 353.936C466.927 353.936 469.231 353.792 471.343 353.504C473.455 353.216 475.519 352.688 477.535 351.92C482.143 350.096 484.447 346.976 484.447 342.56C484.447 339.584 483.247 337.328 480.847 335.792C478.543 334.16 475.615 332.864 472.063 331.904C468.511 330.848 464.623 329.936 460.399 329.168C456.271 328.304 452.431 327.152 448.879 325.712C445.327 324.272 442.351 322.304 439.951 319.808C437.647 317.312 436.495 313.856 436.495 309.44C436.495 302.912 438.847 297.872 443.551 294.32C448.351 290.672 455.407 288.848 464.719 288.848C473.551 288.848 480.511 290.96 485.599 295.184C489.823 298.736 492.271 303.44 492.943 309.296H481.999ZM527.132 301.664C532.988 293.12 541.58 288.848 552.908 288.848C563.276 288.848 571.676 292.448 578.108 299.648C584.54 306.752 587.756 315.536 587.756 326C587.756 336.464 584.54 345.248 578.108 352.352C571.676 359.552 562.988 363.152 552.044 363.152C541.196 363.152 532.892 358.928 527.132 350.48V362H516.332V261.2H527.132V301.664ZM551.468 353.36C559.148 353.36 565.388 350.672 570.188 345.296C574.7 340.208 576.956 333.776 576.956 326C576.956 318.224 574.7 311.792 570.188 306.704C565.388 301.328 559.148 298.64 551.468 298.64C543.692 298.64 537.548 301.328 533.036 306.704C528.716 311.792 526.556 318.224 526.556 326C526.556 333.776 528.716 340.208 533.036 345.296C537.548 350.672 543.692 353.36 551.468 353.36ZM661.016 362V350.768C658.424 354.224 655.256 357.152 651.512 359.552C647.768 361.952 643.496 363.152 638.696 363.152C633.896 363.152 629.768 362.48 626.312 361.136C622.856 359.792 619.832 357.776 617.24 355.088C611.288 349.232 608.312 341.504 608.312 331.904V290H619.112V331.616C619.112 338.24 620.984 343.52 624.728 347.456C628.472 351.392 633.32 353.36 639.272 353.36C645.32 353.36 650.456 351.344 654.68 347.312C658.904 343.184 661.016 337.904 661.016 331.472V290H671.816V362H661.016ZM735.81 288.848V299.648H734.514C726.738 299.648 720.402 302.768 715.506 309.008C710.898 314.96 708.594 322.064 708.594 330.32V362H697.794V290H708.594V307.712C710.898 300.224 715.89 294.704 723.57 291.152C726.738 289.616 730.578 288.848 735.09 288.848H735.81ZM808.967 301.52V290H819.767V359.84C819.767 370.208 816.791 378.08 810.839 383.456C804.983 388.928 797.063 391.664 787.079 391.664C777.095 391.664 769.271 389.744 763.607 385.904C758.039 382.064 754.247 376.976 752.231 370.64H764.183C767.255 378.128 774.263 381.872 785.207 381.872C793.559 381.872 799.607 379.952 803.351 376.112C807.095 372.272 808.967 366.608 808.967 359.12V349.184C803.111 357.728 794.519 362 783.191 362C772.823 362 764.375 358.448 757.847 351.344C751.511 344.432 748.343 335.792 748.343 325.424C748.343 315.056 751.511 306.416 757.847 299.504C764.375 292.4 773.063 288.848 783.911 288.848C794.855 288.848 803.207 293.072 808.967 301.52ZM784.631 352.208C788.567 352.208 792.071 351.536 795.143 350.192C798.215 348.752 800.855 346.832 803.063 344.432C807.383 339.44 809.543 333.104 809.543 325.424C809.543 317.744 807.383 311.408 803.063 306.416C798.359 301.232 792.215 298.64 784.631 298.64C776.855 298.64 770.615 301.232 765.911 306.416C761.399 311.504 759.143 317.84 759.143 325.424C759.143 333.008 761.399 339.344 765.911 344.432C770.615 349.616 776.855 352.208 784.631 352.208ZM877.759 353.36C887.455 353.36 894.415 349.328 898.639 341.264H910.447C907.951 347.792 903.967 353.072 898.495 357.104C893.119 361.136 886.159 363.152 877.615 363.152C866.767 363.152 857.935 359.552 851.119 352.352C844.495 345.344 841.183 336.56 841.183 326C841.183 315.344 844.351 306.56 850.687 299.648C857.407 292.448 866.143 288.848 876.895 288.848C887.647 288.848 896.383 292.448 903.103 299.648C909.439 306.56 912.607 315.344 912.607 326V330.32H852.271C853.039 336.944 855.679 342.416 860.191 346.736C864.799 351.152 870.655 353.36 877.759 353.36ZM876.895 298.64C870.271 298.64 864.703 300.704 860.191 304.832C855.967 308.768 853.375 313.904 852.415 320.24H901.375C900.415 313.904 897.823 308.768 893.599 304.832C889.087 300.704 883.519 298.64 876.895 298.64ZM971.02 288.848V299.648H969.724C961.948 299.648 955.612 302.768 950.716 309.008C946.108 314.96 943.804 322.064 943.804 330.32V362H933.004V290H943.804V307.712C946.108 300.224 951.1 294.704 958.78 291.152C961.948 289.616 965.788 288.848 970.3 288.848H971.02Z" fill="#87ADC6"/>
</svg>
