<svg width="884" height="160" viewBox="0 0 884 160" fill="none" xmlns="http://www.w3.org/2000/svg">
<rect y="86" width="884" height="74" fill="#011638"/>
<path d="M50.3256 56.944C55.1256 48.88 62.4216 44.848 72.2136 44.848C77.0136 44.848 81.4296 46.144 85.4616 48.736C89.5896 51.232 92.8056 54.784 95.1096 59.392C98.3736 53.344 103.462 49.024 110.374 46.432C113.158 45.376 116.278 44.848 119.734 44.848C123.286 44.848 126.646 45.568 129.814 47.008C133.078 48.352 135.958 50.32 138.454 52.912C143.83 58.672 146.518 65.872 146.518 74.512V118H135.718V74.8C135.718 68.848 134.038 63.952 130.678 60.112C127.318 56.464 123.046 54.64 117.862 54.64C112.39 54.64 107.83 56.416 104.182 59.968C100.342 63.616 98.4216 68.608 98.4216 74.944V118H87.6216V74.8C87.6216 68.848 85.9416 63.952 82.5816 60.112C79.2216 56.464 74.9496 54.64 69.7656 54.64C64.2936 54.64 59.7336 56.416 56.0856 59.968C52.2456 63.616 50.3256 68.608 50.3256 74.944V118H39.5256V46H50.3256V56.944ZM189.065 146.512H177.401L190.505 116.992L161.129 46H173.081L196.265 105.04L219.881 46H231.689L189.065 146.512ZM297.348 57.52C303.108 49.072 311.7 44.848 323.124 44.848C333.492 44.848 341.892 48.448 348.324 55.648C354.756 62.752 357.972 71.536 357.972 82C357.972 92.464 354.756 101.248 348.324 108.352C341.892 115.552 333.252 119.152 322.404 119.152C311.556 119.152 303.204 114.88 297.348 106.336V146.512H286.548V46H297.348V57.52ZM321.684 54.64C313.908 54.64 307.764 57.328 303.252 62.704C298.932 67.792 296.772 74.224 296.772 82C296.772 89.776 298.932 96.208 303.252 101.296C307.764 106.672 313.908 109.36 321.684 109.36C329.364 109.36 335.604 106.672 340.404 101.296C344.916 96.208 347.172 89.776 347.172 82C347.172 74.224 344.916 67.792 340.404 62.704C335.604 57.328 329.364 54.64 321.684 54.64ZM417.263 44.848V55.648H415.967C408.191 55.648 401.855 58.768 396.959 65.008C392.351 70.96 390.047 78.064 390.047 86.32V118H379.247V46H390.047V63.712C392.351 56.224 397.343 50.704 405.023 47.152C408.191 45.616 412.031 44.848 416.543 44.848H417.263ZM465.508 44.848C476.26 44.848 484.996 48.448 491.716 55.648C498.052 62.56 501.22 71.344 501.22 82C501.22 92.656 498.052 101.44 491.716 108.352C484.996 115.552 476.26 119.152 465.508 119.152C454.756 119.152 446.02 115.552 439.3 108.352C432.964 101.44 429.796 92.656 429.796 82C429.796 71.344 432.964 62.56 439.3 55.648C446.02 48.448 454.756 44.848 465.508 44.848ZM465.508 109.36C473.284 109.36 479.428 106.672 483.94 101.296C488.26 96.208 490.42 89.776 490.42 82C490.42 74.224 488.26 67.792 483.94 62.704C479.428 57.328 473.284 54.64 465.508 54.64C457.732 54.64 451.588 57.328 447.076 62.704C442.756 67.792 440.596 74.224 440.596 82C440.596 89.776 442.756 96.208 447.076 101.296C451.588 106.672 457.732 109.36 465.508 109.36ZM522.741 46H533.541V146.512H522.741V46ZM533.973 19.792V33.904H522.309V19.792H533.973ZM591.585 109.36C601.281 109.36 608.241 105.328 612.465 97.264H624.273C621.777 103.792 617.793 109.072 612.321 113.104C606.945 117.136 599.985 119.152 591.441 119.152C580.593 119.152 571.761 115.552 564.945 108.352C558.321 101.344 555.009 92.56 555.009 82C555.009 71.344 558.177 62.56 564.513 55.648C571.233 48.448 579.969 44.848 590.721 44.848C601.473 44.848 610.209 48.448 616.929 55.648C623.265 62.56 626.433 71.344 626.433 82V86.32H566.097C566.865 92.944 569.505 98.416 574.017 102.736C578.625 107.152 584.481 109.36 591.585 109.36ZM590.721 54.64C584.097 54.64 578.529 56.704 574.017 60.832C569.793 64.768 567.201 69.904 566.241 76.24H615.201C614.241 69.904 611.649 64.768 607.425 60.832C602.913 56.704 597.345 54.64 590.721 54.64ZM680.093 109.36C684.701 109.36 688.781 108.064 692.333 105.472C695.885 102.88 698.477 99.52 700.109 95.392H711.773C709.565 102.496 705.533 108.208 699.677 112.528C693.533 116.944 686.237 119.152 677.789 119.152C667.229 119.152 658.637 115.552 652.013 108.352C645.581 101.344 642.365 92.56 642.365 82C642.365 71.44 645.581 62.656 652.013 55.648C658.637 48.448 667.229 44.848 677.789 44.848C686.237 44.848 693.533 47.056 699.677 51.472C705.533 55.792 709.565 61.504 711.773 68.608H700.109C698.477 64.48 695.885 61.12 692.333 58.528C688.781 55.936 684.701 54.64 680.093 54.64C675.485 54.64 671.549 55.36 668.285 56.8C665.117 58.24 662.429 60.208 660.221 62.704C655.517 67.888 653.165 74.32 653.165 82C653.165 89.68 655.517 96.112 660.221 101.296C665.021 106.672 671.645 109.36 680.093 109.36ZM740.133 118V55.504H725.445V46H740.133V20.224H750.933V46H767.493V55.504H750.933V118H740.133ZM828.862 65.296C827.902 57.808 821.854 54.064 810.718 54.064C799.678 54.064 794.158 57.52 794.158 64.432C794.158 67.312 795.31 69.52 797.614 71.056C800.014 72.496 802.99 73.696 806.542 74.656C810.094 75.616 813.934 76.528 818.062 77.392C822.286 78.16 826.174 79.312 829.726 80.848C833.278 82.288 836.206 84.304 838.51 86.896C840.91 89.488 842.11 93.04 842.11 97.552C842.11 104.56 839.47 109.936 834.19 113.68C828.91 117.328 821.758 119.152 812.734 119.152C803.134 119.152 795.502 116.752 789.838 111.952C784.654 107.728 781.87 102.208 781.486 95.392H792.718C793.39 102.016 797.134 106.48 803.95 108.784C806.446 109.552 808.894 109.936 811.294 109.936C813.79 109.936 816.094 109.792 818.206 109.504C820.318 109.216 822.382 108.688 824.398 107.92C829.006 106.096 831.31 102.976 831.31 98.56C831.31 95.584 830.11 93.328 827.71 91.792C825.406 90.16 822.478 88.864 818.926 87.904C815.374 86.848 811.486 85.936 807.262 85.168C803.134 84.304 799.294 83.152 795.742 81.712C792.19 80.272 789.214 78.304 786.814 75.808C784.51 73.312 783.358 69.856 783.358 65.44C783.358 58.912 785.71 53.872 790.414 50.32C795.214 46.672 802.27 44.848 811.582 44.848C820.414 44.848 827.374 46.96 832.462 51.184C836.686 54.736 839.134 59.44 839.806 65.296H828.862Z" fill="#87ADC6"/>
</svg>
